#!OML:ASF F:\VICON\USERDATA\INSTALL\rory3\rory3.ASF
:FULLY-SPECIFIED
:DEGREES
27
root 0.5213252351034086 17.549197288791603 -13.80079137226318 5.620115435159799 -1.0747696744142206 -1.688941859365715
lfemur -9.771137275365529 8.51884608649746 -18.40690356954634
ltibia 17.175907098213518
lfoot -11.864900444259689 1.6278462189982381
ltoes -8.127495629052262
rfemur -10.74230734503491 -3.782511707960264 20.050307140970872
rtibia 19.82550746114521
rfoot -14.020200930244792 -1.5541052015027805
rtoes 7.597923935212938
lowerback -1.2639126912635978 -0.31898205487433196 0.5716956989088381
upperback 3.8779694403546174 -0.5170164279506797 1.6695223980398093
thorax 4.719140536038903 -0.27086349579047325 1.376696799856335
lowerneck -16.03479735948652 0.6768777999316873 -2.2389017009948713
upperneck 26.88459021065767 1.6322358998120872 -0.08146744499777207
head 11.37918904514105 0.49472847643227436 0.5857947804395035
lclavicle 5.751011781457494e-16 -3.1237623103128235e-16
lhumerus -17.589501858778036 -8.149341028591632 91.5497914800189
lradius 19.61049695714782
lwrist 4.220062477656545
lhand -24.88030751108128 -4.269578929319672
lfingers 7.125019999999998
lthumb 1.6271324964970104 25.703990974907633
rclavicle 5.751011781457494e-16 -3.1237623103128235e-16
rhumerus -18.732103421088556 -10.479408634335872 -84.76649120734713
rradius 23.975599572416915
rwrist 32.54510429789122
rhand -19.37410690088156 -26.288400868457583
rfingers 7.125019999999998
rthumb 6.944073084591657 -56.154501033613
28
root 0.520931244090862 17.548497284919947 -13.803391561732607 5.616915398380835 -1.053089830890547 -1.6810119770532466
lfemur -9.800188178145696 8.499136195453541 -18.414303530815427
ltibia 17.21300784294556
lfoot -11.870500450475802 1.6228161392937217
ltoes -8.15401574071883
rfemur -10.763207434512026 -3.7564318032676383 20.04400718178709
rtibia 19.857207073100575
rfoot -14.0225009383885 -1.5999050344848142
rtoes 7.586683976166359
lowerback -1.266932460984851 -0.3209250230875833 0.5604798648406971
upperback 3.9044693095193526 -0.5197403995835677 1.6697623929199648
thorax 4.748730386942574 -0.27273143334989947 1.3831467120361958
lowerneck -16.0510972724297 0.6687929524845666 -2.233421781212363
upperneck 26.82258993325237 1.6187860809749492 -0.08183193964967728
head 11.358988905366033 0.48996962378178743 0.5825358535579237
lclavicle 5.751011798124745e-16 -3.123762260773167e-16
lhumerus -17.525502037559495 -8.210411034287038 91.5493913186138
lradius 19.63349684288392
lwrist 4.254602423539003
lhand -24.9279071538265 -4.317218824934409
lfingers 7.125019999999998
lthumb 1.5811828513123938 25.656691268407478
rclavicle 5.751011798124745e-16 -3.123762260773167e-16
rhumerus -18.680103438869196 -10.455908462396167 -84.78659117089374
rradius 24.027399402142784
rwrist 32.487804363231405
rhand -19.36140699230039 -26.274400968851626
rfingers 7.125019999999998
rthumb 6.9562830316347615 -56.140101134157156
29
root 0.5204122655343749 17.546997305853214 -13.807591762333496 5.598065374853171 -1.03129998868483 -1.6823519649628236
lfemur -9.828688065651924 8.477636324182997 -18.40930356031323
ltibia 17.27580812831196
lfoot -11.891900423263637 1.6208860830790122
ltoes -8.13854558899785
rfemur -10.773006573558941 -3.7305619439467996 20.04680715492593
rtibia 19.892206922022147
rfoot -14.021900933462296 -1.6539549696994453
rtoes 7.5456738306995135
lowerback -1.236092484010137 -0.3184010739726237 0.5607888428620464
upperback 3.9426491325556086 -0.5165834471495858 1.6700423880665156
thorax 4.7710004906988095 -0.27126647516612645 1.383626700525027
lowerneck -16.06939721379112 0.6660960032152049 -2.2094922253368368
upperneck 26.755990448709184 1.6086661791374328 -0.08546111534837236
head 11.337589035690215 0.48823567634652576 0.5754080102935881
lclavicle 5.751011745995233e-16 -3.123762103536901e-16
lhumerus -17.435002091580508 -8.160301251210763 91.51159151279214
lradius 19.63689686133371
lwrist 4.207272468640591
lhand -24.932407089244812 -4.33084874141036
lfingers 7.125019999999998
lthumb 1.5768428535410615 25.643091284273755
rclavicle 5.751011745995233e-16 -3.123762103536901e-16
rhumerus -18.634203574623857 -10.40140871137083 -84.80599128309633
rradius 24.073199250523427
rwrist 32.411804514987885
rhand -19.359606942463287 -26.2399012331916
rfingers 7.125019999999998
rthumb 6.958053036702596 -56.105501386783295
30
root 0.5198502856934902 17.54649732647148 -13.812291709341771 5.609245198030739 -1.0118301292276757 -1.6760320597012874
lfemur -9.883577452165202 8.442546583420835 -18.416203508112645
ltibia 17.319007221353296
lfoot -11.887700425882494 1.6226860096685574
ltoes -8.086335861620007
rfemur -10.82900770967229 -3.698962168943855 20.045007166587705
rtibia 19.940307411418594
rfoot -14.020700923609889 -1.7092047907983705
rtoes 7.421994020719353
lowerback -1.2086027929846583 -0.3121901961137357 0.5465590541932934
upperback 3.9657790145806513 -0.5078335776092138 1.672732328722112
thorax 4.779490497389125 -0.26758058238192084 1.3950165530736245
lowerneck -16.09089711657808 0.6580811537805455 -2.2069622658695307
upperneck 26.727390337095436 1.588916426396224 -0.05840860544187938
head 11.330789004104053 0.4833538259446384 0.5820398613467092
lclavicle 5.751011793514654e-16 -3.12376220046331e-16
lhumerus -17.334502259167508 -8.134931060340687 91.47389168650695
lradius 19.584197032585827
lwrist 4.223532521625251
lhand -24.946507002793194 -4.272078967388547
lfingers 7.125019999999998
lthumb 1.5632229685304773 25.701891045448395
rclavicle 5.751011793514654e-16 -3.12376220046331e-16
rhumerus -18.603703668930297 -10.393308803005883 -84.80819110526598
rradius 24.0911991945591
rwrist 32.40000455081913
rhand -19.364406963434497 -26.2526011316733
rfingers 7.125019999999998
rthumb 6.953433063311792 -56.118401288117376
31
root 0.5195902787576097 17.54599730616821 -13.816991656350046 5.62776503567777 -1.0172500894623537 -1.687741879882578
lfemur -9.9526072681459 8.453776502418028 -18.407603571984428
ltibia 17.377007607492878
lfoot -11.90010039596109 1.6063460464128752
ltoes -8.068105817377047
rfemur -10.889406561551038 -3.6868022202459794 20.064406997296565
rtibia 19.973606988162082
rfoot -14.012000948840596 -1.7395847855513442
rtoes 7.286704271876536
lowerback -1.170992507531457 -0.29961442971764374 0.5673377693733342
upperback 3.9804089508302454 -0.49165180799805336 1.6777322209389827
thorax 4.772900319782124 -0.2588818451250726 1.3895766407423753
lowerneck -16.068297222673817 0.6510292868508858 -2.214362136681521
upperneck 26.677590408587662 1.5744366075272946 -0.04052823229338976
head 11.307289216564765 0.4790949567059502 0.5873267456683787
lclavicle 5.751011803089462e-16 -3.123762228464259e-16
lhumerus -17.292802318771095 -8.154271124839395 91.42839175356252
lradius 19.600797003128566
lwrist 4.1995324499033595
lhand -24.93970702143397 -4.282698884902573
lfingers 7.125019999999998
lthumb 1.5697629342201456 25.69129112590558
rclavicle 5.751011803089462e-16 -3.123762228464259e-16
rhumerus -18.60460353211618 -10.430508431725062 -84.8017911622227
rradius 24.10919913859477
rwrist 32.403404489695646
rhand -19.40140666338565 -26.26820101669992
rfingers 7.125019999999998
rthumb 6.917713309041157 -56.13510117060566
32
root 0.5195712860774109 17.54589733484479 -13.822291436151822 5.648115315550768 -1.0279200129966617 -1.679771996589378
lfemur -10.018908180982422 8.46698640693032 -18.421403467583254
ltibia 17.429407469674953
lfoot -11.911300379269546 1.586846092098186
ltoes -7.95742612705512
rfemur -10.938407726581332 -3.653872395227782 20.051307125771487
rtibia 20.007707785662465
rfoot -14.03280090481419 -1.7185648385764054
rtoes 7.518424088392147
lowerback -1.1092228922648637 -0.2919815887967696 0.5795356132351184
upperback 3.996618867717684 -0.48111997666989764 1.6764622427129041
thorax 4.754310391339742 -0.2531800118191754 1.382206718532215
lowerneck -16.064497259726437 0.6492673200522836 -2.221672014518176
upperneck 26.626490359808926 1.5716566341017506 -0.03531717004605116
head 11.286989099298012 0.47845197756338864 0.5897396905424537
lclavicle 5.751011836423987e-16 -3.1237621530770284e-16
lhumerus -17.269602378686155 -8.116271053224592 91.36449193701922
lradius 19.612996955771884
lwrist 4.173452597151526
lhand -24.952106996334884 -4.333458728494473
lfingers 7.125019999999998
lthumb 1.5578130653419016 25.640591278678997
rclavicle 5.751011836423987e-16 -3.1237621530770284e-16
rhumerus -18.575303672062645 -10.455308630259276 -84.80549120842034
rradius 24.09359918248657
rwrist 32.38660460561975
rhand -19.397306750404997 -26.25090115148717
rfingers 7.125019999999998
rthumb 6.9215832651739495 -56.11780129691873
